<?xml version="1.0" standalone="no"?>
<!DOCTYPE svg PUBLIC "-//W3C//DTD SVG 20010904//EN"
 "http://www.w3.org/TR/2001/REC-SVG-20010904/DTD/svg10.dtd">
<svg version="1.0" xmlns="http://www.w3.org/2000/svg"
 width="1024.000000pt" height="1024.000000pt" viewBox="0 0 1024.000000 1024.000000"
 preserveAspectRatio="xMidYMid meet">

<g transform="translate(0.000000,1024.000000) scale(0.100000,-0.100000)"
fill="#000000" stroke="none">
<path d="M4868 8949 c-287 -27 -665 -138 -928 -271 -185 -94 -397 -234 -535
-353 l-100 -86 -12 28 c-6 16 -21 37 -32 47 -21 19 -21 19 -21 -3 0 -14 -11
-28 -30 -39 -36 -20 -34 -32 8 -52 17 -8 32 -17 32 -20 0 -3 -48 -62 -107
-130 -209 -245 -242 -286 -315 -400 -339 -523 -493 -995 -492 -1510 2 -545
139 -991 460 -1497 64 -100 237 -323 358 -459 64 -73 116 -136 116 -142 0 -5
-9 -12 -19 -15 -11 -2 -29 -23 -41 -46 -11 -23 -32 -47 -46 -53 -31 -14 -27
-39 8 -56 20 -9 32 -10 52 -1 26 12 66 80 66 112 0 42 33 26 157 -75 287 -234
592 -404 933 -518 170 -58 325 -91 583 -125 470 -63 876 -13 1319 161 258 101
547 257 686 370 37 30 113 92 169 136 92 75 100 84 92 106 -8 20 -1 50 16 70
2 2 15 -4 29 -13 l26 -17 60 63 c101 108 262 314 333 427 141 223 264 509 326
758 79 318 95 454 88 748 -5 232 -25 380 -81 611 -86 355 -252 704 -498 1054
-106 149 -227 311 -234 311 -3 0 4 -12 15 -27 62 -81 234 -332 290 -423 144
-234 326 -646 308 -694 -3 -8 1 -20 9 -27 9 -7 13 -21 11 -30 -3 -10 0 -20 7
-22 7 -3 6 -10 -5 -22 -16 -16 -17 -15 -24 14 -3 17 -3 36 1 42 4 8 3 9 -4 5
-17 -10 -15 -48 3 -73 9 -12 19 -43 24 -68 7 -39 6 -45 -6 -41 -8 3 -17 6 -19
6 -3 0 -3 4 1 9 3 5 1 12 -5 16 -14 9 -13 -17 10 -130 98 -508 46 -1010 -157
-1510 -69 -172 -205 -408 -322 -560 -83 -108 -222 -255 -241 -255 -11 0 -55
34 -99 75 -44 41 -91 77 -105 81 -42 10 -31 37 47 122 89 97 117 130 117 140
0 4 9 13 20 20 11 6 29 29 40 49 22 41 23 42 90 148 89 141 152 261 160 305 4
25 17 72 30 105 12 33 25 73 27 88 5 25 6 26 19 10 13 -17 13 -17 14 0 0 10 4
16 9 13 5 -3 9 0 8 7 0 6 1 28 1 49 2 30 5 35 21 31 15 -4 20 4 30 42 6 25 9
50 6 56 -4 5 -2 9 3 9 6 0 15 39 22 86 10 68 10 109 -1 202 -7 64 -13 172 -13
239 -1 67 -4 114 -8 105 -5 -14 -7 -13 -7 5 -1 12 4 25 10 28 6 4 8 13 5 21
-7 18 -1 18 18 -1 13 -14 15 -8 11 59 -7 137 -26 236 -49 257 -15 15 -16 18
-4 14 13 -5 15 -2 11 14 -3 11 -9 18 -14 15 -5 -3 -9 7 -9 23 0 32 -45 216
-60 243 -5 10 -17 40 -26 66 -80 241 -336 672 -450 759 -36 27 -41 26 -24 -6
8 -15 7 -19 -4 -19 -19 0 -66 61 -66 86 0 27 47 97 109 164 28 30 51 59 51 64
0 5 -3 7 -6 3 -3 -3 -17 7 -31 24 -14 16 -31 29 -38 29 -7 0 -47 -37 -89 -82
l-76 -81 -52 49 c-133 125 -332 253 -556 358 -190 89 -371 147 -586 188 -135
26 -188 31 -331 33 -93 1 -179 5 -190 8 -11 3 -56 2 -100 -2 -76 -8 -77 -8
-25 -10 41 -2 50 -5 35 -11 -16 -7 -12 -9 19 -9 87 -2 22 -10 -122 -15 -104
-4 -151 -2 -146 5 4 7 -6 8 -28 5 -18 -3 -64 -11 -102 -16 -40 -6 -74 -17 -80
-26 -6 -8 -70 -35 -141 -60 -260 -90 -418 -165 -551 -261 -43 -32 -98 -71
-122 -87 -23 -16 -72 -55 -109 -88 -66 -58 -83 -68 -83 -47 0 18 -118 142
-165 174 -44 30 -57 58 -31 68 7 3 67 47 132 98 161 127 308 218 498 309 171
83 210 98 406 155 422 122 977 126 1460 10 342 -82 736 -283 1010 -515 52 -44
99 -80 105 -79 5 0 4 3 -3 6 -6 2 -10 8 -7 13 2 4 -4 15 -15 25 -11 10 -20 14
-20 10 0 -5 -11 2 -25 15 -13 12 -22 27 -19 31 3 5 -7 11 -21 15 -14 3 -32 16
-40 27 -8 12 -15 18 -15 14 0 -5 -7 -2 -15 5 -33 30 -45 38 -55 38 -6 0 -8 5
-4 12 4 7 3 8 -5 4 -6 -4 -23 5 -39 21 -16 15 -33 30 -38 33 -5 3 -8 8 -6 13
1 4 -3 7 -9 7 -5 0 -7 5 -3 12 4 7 3 8 -4 4 -11 -6 -68 27 -83 48 -4 5 -11 6
-17 2 -6 -4 -8 2 -5 14 3 11 0 20 -6 20 -6 0 -11 -7 -11 -15 0 -8 -8 -15 -17
-15 -15 0 -16 2 -3 10 12 7 8 10 -15 11 -25 0 -26 2 -10 8 19 8 19 8 0 19 -12
7 -15 12 -6 12 11 0 11 3 1 15 -7 9 -19 14 -27 11 -7 -3 -13 0 -13 7 0 12
-174 100 -224 113 -23 5 -27 4 -21 -6 5 -9 4 -11 -3 -6 -7 4 -12 13 -12 19 0
16 -29 28 -180 77 -151 49 -264 72 -475 100 -184 24 -544 34 -697 19z m1327
-189 c13 -6 15 -9 5 -9 -8 0 -22 4 -30 9 -18 12 -2 12 25 0z m-433 -335 c188
-33 385 -115 509 -212 31 -24 72 -48 92 -54 25 -7 58 -34 111 -90 42 -44 76
-85 76 -91 0 -25 -94 8 -269 95 l-186 92 -93 -1 -92 -2 -45 44 c-43 44 -89 62
-121 50 -15 -6 -13 -10 12 -34 16 -16 49 -34 74 -41 78 -22 262 -97 360 -146
165 -82 303 -173 408 -267 30 -26 58 -48 64 -48 6 0 37 25 69 55 32 30 62 55
67 55 16 0 50 -34 57 -57 5 -19 -3 -29 -54 -65 -33 -24 -61 -46 -61 -50 0 -4
23 -31 51 -60 27 -29 45 -43 40 -31 -14 29 -5 51 30 68 38 20 46 19 55 -7 4
-13 26 -51 50 -84 43 -61 54 -97 33 -109 -21 -14 -58 6 -109 57 l-53 53 41
-50 c73 -90 201 -310 272 -465 102 -225 154 -415 187 -692 l17 -147 46 -3 45
-3 0 -40 0 -40 -46 -3 -46 -3 -7 -106 c-18 -284 -138 -662 -293 -927 -54 -91
-145 -218 -210 -290 -24 -27 -53 -62 -64 -77 l-19 -28 31 -36 32 -36 14 32 c7
17 39 61 71 98 167 188 310 444 398 709 47 140 49 142 86 142 l31 0 -6 -82
c-4 -46 -20 -135 -36 -198 -16 -63 -32 -147 -36 -187 -5 -56 -14 -83 -38 -122
-85 -134 -182 -262 -282 -370 l-110 -119 -27 32 c-21 23 -27 27 -28 14 0 -10
-11 -25 -25 -34 -30 -20 -41 -13 -86 53 -17 24 -36 43 -43 43 -7 0 -38 -22
-68 -49 -141 -123 -369 -264 -558 -345 -113 -48 -300 -106 -427 -130 -71 -14
-278 -36 -346 -36 -27 0 -28 -2 -22 -31 4 -17 4 -51 0 -75 -6 -42 -8 -44 -41
-44 -21 0 -33 -4 -29 -10 3 -5 14 -10 25 -10 11 0 20 -10 24 -26 5 -20 12 -25
34 -22 34 4 52 38 52 100 0 26 3 49 8 51 4 3 66 10 137 16 388 34 674 138
1045 379 63 41 139 86 168 99 l52 25 42 -31 c23 -17 48 -31 55 -31 37 0 -9
-46 -82 -83 -27 -14 -71 -45 -96 -68 -45 -43 -281 -216 -343 -252 -17 -10 -23
-16 -12 -13 62 20 400 247 505 340 34 31 68 56 75 56 8 0 17 -11 20 -24 8 -32
96 -127 151 -164 l44 -29 -21 -29 c-31 -44 -211 -186 -371 -293 -312 -208
-814 -380 -1182 -403 -232 -14 -461 -20 -448 -11 6 4 -26 8 -70 8 -45 0 -109
4 -142 9 -55 9 -57 10 -30 17 25 7 23 8 -17 6 -25 -1 -44 2 -41 6 3 5 -5 8
-18 6 -13 -1 -31 1 -39 4 -46 18 -133 38 -147 33 -23 -9 -97 15 -81 26 9 7 4
8 -14 5 -17 -2 -25 0 -21 6 4 6 -2 8 -15 5 -12 -4 -20 -3 -17 2 2 4 -6 8 -19
8 -27 -1 -190 52 -183 58 2 3 17 0 32 -6 15 -6 30 -9 32 -6 8 7 -160 67 -174
61 -9 -3 -11 0 -7 7 5 8 2 9 -10 5 -9 -4 -15 -3 -12 2 9 13 -71 52 -90 44 -11
-4 -15 -2 -11 5 6 8 -111 84 -158 101 -5 2 -17 9 -25 15 -9 6 -7 2 5 -9 11
-11 32 -28 45 -38 l25 -18 -25 12 c-39 19 -90 60 -85 69 3 4 -3 7 -12 6 -10 0
-18 4 -18 11 0 6 -4 15 -9 20 -5 5 -6 3 -2 -4 4 -7 4 -13 0 -13 -15 0 -143 93
-194 142 -31 29 -49 47 -40 40 31 -23 35 -12 5 12 -16 13 -33 20 -36 15 -3 -5
-16 3 -30 18 -22 25 -22 26 -1 9 12 -11 25 -16 30 -12 4 4 -3 16 -14 25 l-22
17 45 55 c25 30 56 67 70 83 l26 29 -32 29 c-17 15 -38 28 -46 28 -8 0 -49
-33 -91 -72 l-76 -73 -37 45 c-20 25 -57 67 -82 95 -25 27 -72 88 -104 135
-116 169 -147 210 -157 203 -7 -3 -8 -1 -4 5 3 6 -29 73 -73 149 -175 306
-293 672 -321 993 -5 63 -15 157 -21 207 -9 69 -9 125 0 220 6 71 16 183 21
250 6 67 14 133 20 145 5 13 21 73 35 133 65 288 206 605 378 850 84 120 225
290 300 363 l54 54 22 -46 c23 -46 116 -139 158 -159 13 -6 23 -14 23 -19 0
-5 -30 -44 -66 -85 -179 -205 -377 -522 -459 -733 -123 -317 -183 -659 -172
-980 17 -491 187 -949 514 -1382 41 -54 76 -98 79 -98 3 0 -9 19 -26 43 -178
236 -354 582 -416 817 -48 183 -57 492 -17 582 18 38 19 47 7 52 -16 6 -20 76
-4 76 6 0 10 66 10 177 0 173 21 439 41 518 42 165 123 325 238 470 35 44 82
119 106 166 49 96 94 160 167 235 27 28 57 66 66 85 13 26 23 33 41 31 17 -1
42 15 89 59 171 161 544 358 807 427 103 27 284 59 405 72 114 11 240 3 240
-16 0 -8 15 -14 38 -16 l37 -3 3 -62 c3 -62 3 -63 32 -63 34 0 37 13 18 84
-13 49 -4 69 37 87 29 13 294 3 397 -16z m1073 -461 c24 -16 33 -34 18 -34 -5
0 -21 11 -38 25 -33 27 -18 34 20 9z m1108 -1169 c-3 -9 -8 -14 -10 -11 -3 3
-2 9 2 15 9 16 15 13 8 -4z m-339 -175 c18 0 39 -107 26 -129 -8 -12 -9 -9 -4
12 5 21 3 27 -11 27 -11 0 -15 -5 -12 -15 4 -8 2 -17 -2 -20 -14 -8 -21 22
-20 88 0 34 3 56 6 50 2 -7 10 -13 17 -13z m-7 -162 c-3 -8 -6 -5 -6 6 -1 11
2 17 5 13 3 -3 4 -12 1 -19z m19 -825 l-11 -47 -3 38 c-3 32 6 52 24 56 0 0
-4 -21 -10 -47z m-13 -89 c-6 -17 -23 -9 -23 11 0 8 6 12 14 9 8 -3 12 -12 9
-20z m-53 -84 c0 -5 -5 -10 -11 -10 -5 0 -7 5 -4 10 3 6 8 10 11 10 2 0 4 -4
4 -10z"/>
<path d="M5280 7979 l0 -209 30 0 30 0 0 164 c0 137 3 166 16 177 36 30 419
-35 613 -103 91 -32 309 -138 351 -170 40 -30 282 -179 286 -175 2 2 -30 28
-71 58 -200 144 -459 288 -630 349 -50 17 -146 44 -215 60 -108 25 -166 33
-372 54 l-38 4 0 -209z"/>
<path d="M4954 8165 c-125 -19 -310 -61 -419 -96 -195 -64 -499 -233 -633
-354 l-52 -47 26 -31 c27 -32 63 -60 50 -39 -23 38 207 201 444 316 207 100
465 173 675 191 155 13 155 13 155 46 l0 29 -77 -1 c-43 -1 -119 -7 -169 -14z"/>
<path d="M4377 7718 c-24 -13 -23 -68 1 -68 24 0 42 19 42 46 0 26 -19 36 -43
22z"/>
<path d="M6190 7685 c-20 -21 -22 -28 -12 -50 23 -50 76 -22 70 37 -4 42 -26
47 -58 13z"/>
<path d="M5278 7684 c-4 -4 -5 -33 -1 -65 l6 -59 -37 0 c-23 0 -36 -5 -36 -13
0 -19 20 -36 36 -30 8 3 14 -1 14 -9 0 -8 6 -23 14 -34 15 -19 15 -19 37 3 16
16 24 37 27 78 3 36 10 59 19 62 20 8 174 -13 241 -33 149 -43 198 -62 341
-128 97 -44 184 -92 233 -128 46 -34 80 -53 84 -47 27 44 -311 249 -531 321
-170 56 -426 103 -447 82z"/>
<path d="M4983 7665 c-169 -31 -392 -106 -513 -172 -84 -47 -207 -129 -243
-161 l-27 -26 31 -32 31 -32 37 37 c45 45 198 142 298 188 144 67 388 135 527
148 75 7 76 8 76 36 l0 29 -72 -1 c-40 0 -105 -7 -145 -14z"/>
<path d="M3744 7553 c-164 -169 -329 -426 -409 -638 -68 -180 -98 -316 -120
-540 -19 -204 -21 -187 17 -183 l33 3 12 130 c16 176 38 288 84 430 50 153
137 328 236 477 74 112 189 253 224 276 14 9 32 -4 103 -73 98 -96 155 -135
92 -64 -50 57 -217 229 -222 229 -3 0 -25 -21 -50 -47z"/>
<path d="M6538 7445 c-71 -74 -128 -137 -128 -142 0 -5 18 -30 40 -57 39 -47
50 -53 30 -16 -8 15 -1 30 44 82 29 35 88 94 130 132 68 60 78 67 94 55 9 -8
1 6 -19 31 -20 25 -43 46 -50 46 -8 1 -71 -58 -141 -131z"/>
<path d="M6788 7435 c15 -27 42 -81 60 -118 17 -38 61 -120 97 -182 36 -63 65
-117 65 -120 0 -4 21 -38 46 -75 25 -38 50 -84 54 -102 26 -103 44 -157 65
-198 34 -64 31 -39 -11 81 -19 57 -42 127 -49 154 -18 63 -130 289 -186 375
-89 137 -109 166 -139 200 l-30 35 28 -50z"/>
<path d="M5125 7334 c-16 -8 -54 -38 -85 -67 -64 -59 -110 -95 -193 -151 -64
-42 -201 -191 -221 -241 -13 -30 -111 -118 -229 -204 -32 -23 -99 -82 -150
-131 -50 -49 -107 -104 -124 -121 -38 -36 -41 -60 -13 -99 11 -16 27 -44 34
-62 12 -27 19 -33 45 -32 16 0 37 7 46 14 13 11 26 8 83 -19 120 -55 196 -52
269 12 20 17 67 70 106 117 39 47 157 173 262 280 105 107 217 230 249 273 66
86 89 95 142 55 18 -13 12 -4 -16 26 -25 26 -58 57 -73 68 l-29 21 -81 -89
c-45 -48 -94 -104 -109 -123 -29 -37 -50 -58 -225 -227 -57 -55 -166 -161
-242 -237 -118 -116 -143 -137 -158 -129 -28 15 -56 50 -49 61 3 5 -4 22 -16
38 -37 46 -68 92 -68 100 0 5 69 71 153 148 268 246 737 718 725 730 -2 2 -17
-3 -33 -11z"/>
<path d="M4075 7184 c-85 -101 -152 -205 -216 -338 -91 -189 -139 -387 -139
-573 l0 -83 29 0 28 0 7 93 c18 238 81 428 217 652 49 82 152 217 170 223 5 2
58 -45 117 -105 120 -122 208 -193 240 -193 26 0 39 38 23 67 -15 29 -43 50
-48 37 -2 -6 -10 -20 -18 -30 -13 -18 -25 -8 -179 149 -91 92 -167 167 -170
167 -3 0 -30 -30 -61 -66z"/>
<path d="M6206 7098 c-70 -73 -134 -146 -142 -161 -17 -33 -10 -67 14 -67 9 0
69 53 132 118 63 65 127 126 141 136 26 16 28 16 57 -9 72 -60 227 -346 277
-510 29 -94 32 -101 40 -94 6 7 -17 91 -48 169 -74 195 -204 414 -301 509
l-43 42 -127 -133z"/>
<path d="M6587 7062 c152 -229 233 -461 267 -767 11 -100 12 -100 40 -103 l29
-4 -8 59 c-14 119 -64 331 -100 428 -58 155 -113 255 -220 399 -79 107 -82
101 -8 -12z"/>
<path d="M6904 6929 c-3 -6 1 -18 9 -27 13 -12 19 -13 31 -3 8 7 12 19 9 27
-6 17 -39 19 -49 3z"/>
<path d="M5660 6645 c19 -19 36 -35 39 -35 3 0 -10 16 -29 35 -19 19 -36 35
-39 35 -3 0 10 -16 29 -35z"/>
<path d="M5730 6577 c0 -2 15 -16 33 -33 l32 -29 -29 33 c-28 30 -36 37 -36
29z"/>
<path d="M6722 6480 c0 -14 2 -19 5 -12 2 6 2 18 0 25 -3 6 -5 1 -5 -13z"/>
<path d="M6154 6366 c-103 -81 -116 -85 -144 -46 -12 16 -28 30 -36 30 -8 0
-13 3 -11 8 1 4 -1 7 -5 7 -3 0 -19 11 -35 25 -15 14 -1 -4 32 -40 92 -100
134 -140 148 -140 34 0 187 130 187 159 0 15 -39 62 -51 60 -2 0 -40 -29 -85
-63z"/>
<path d="M5310 6350 c34 -11 60 -11 35 0 -11 5 -29 8 -40 8 -16 0 -15 -2 5 -8z"/>
<path d="M5128 6311 c-52 -33 -89 -78 -118 -144 -20 -45 -20 -52 -9 -412 6
-201 10 -368 8 -370 -2 -1 -87 -5 -189 -8 -102 -3 -185 -9 -185 -14 1 -22 43
-74 63 -80 13 -3 88 -4 168 -1 203 6 197 1 206 189 11 238 37 361 77 374 10 3
34 -1 54 -10 53 -22 154 -20 195 5 18 11 35 20 37 20 3 0 5 -96 5 -212 0 -187
3 -218 19 -255 11 -22 28 -44 39 -47 10 -4 24 -17 30 -30 14 -30 49 -36 234
-36 138 0 148 1 173 23 l25 22 -7 409 -6 409 -29 31 -30 31 6 -419 6 -419 -46
7 c-26 3 -120 6 -209 6 l-162 0 1 153 c0 83 0 195 0 247 0 52 0 158 1 235 0
77 -2 149 -5 159 -5 20 -47 72 -92 117 -31 30 -95 49 -165 49 -37 0 -61 -7
-95 -29z m192 -130 c35 -25 50 -58 50 -110 0 -51 -28 -102 -66 -120 -28 -12
-89 -6 -113 13 -12 9 -13 8 -6 -4 8 -13 6 -13 -8 -1 -9 7 -15 16 -12 20 2 4
-5 20 -16 37 -11 16 -19 46 -19 70 0 32 6 46 33 71 17 17 41 36 52 42 25 14
72 6 105 -18z m157 -233 c-3 -7 -5 -2 -5 12 0 14 2 19 5 13 2 -7 2 -19 0 -25z"/>
<path d="M5370 6330 c0 -5 5 -10 11 -10 5 0 7 5 4 10 -3 6 -8 10 -11 10 -2 0
-4 -4 -4 -10z"/>
<path d="M6761 6294 c0 -11 3 -14 6 -6 3 7 2 16 -1 19 -3 4 -6 -2 -5 -13z"/>
<path d="M2642 6243 c-28 -5 -44 -43 -40 -92 3 -35 4 -36 48 -39 24 -2 59 -1
77 3 33 6 33 7 33 61 0 49 -2 55 -26 64 -26 10 -50 11 -92 3z"/>
<path d="M4280 6166 c0 -2 7 -7 16 -10 8 -3 12 -2 9 4 -6 10 -25 14 -25 6z"/>
<path d="M4090 6109 c-91 -4 -211 -6 -267 -2 l-103 5 0 -77 c0 -141 59 -370
141 -544 42 -90 174 -297 206 -322 16 -13 16 -11 -2 16 -141 218 -198 343
-246 541 -23 93 -32 154 -33 219 l-1 90 260 7 c143 3 272 11 288 17 26 10 36
34 18 45 -19 12 -100 14 -261 5z"/>
<path d="M3039 6088 c9 -25 51 -52 63 -40 3 4 4 19 1 35 -5 23 -10 27 -39 27
-30 0 -33 -2 -25 -22z"/>
<path d="M3200 6068 c0 -64 26 -231 54 -354 48 -211 150 -452 273 -642 56 -87
231 -322 240 -322 7 0 -7 21 -57 85 -131 167 -250 382 -327 590 -60 162 -94
316 -118 536 -10 88 -6 89 191 89 l164 0 0 30 0 30 -210 0 -210 0 0 -42z"/>
<path d="M6929 6102 l-66 -3 -12 -102 c-38 -339 -173 -658 -379 -895 -51 -59
-54 -65 -42 -87 7 -14 24 -34 37 -46 l23 -22 0 23 c0 13 20 46 45 76 199 232
337 555 376 874 6 52 15 101 21 107 7 9 58 13 167 15 l156 3 3 27 c3 25 0 27
-50 33 -49 5 -102 5 -279 -3z"/>
<path d="M6253 6084 c-13 -35 12 -39 262 -42 219 -3 244 -5 248 -20 3 -9 5 4
6 31 l1 47 -255 0 c-223 0 -256 -2 -262 -16z"/>
<path d="M4596 6033 c-10 -60 -20 -504 -12 -545 3 -20 13 -39 21 -42 13 -5 14
29 9 272 -3 152 -5 294 -5 315 1 20 0 37 -2 37 -3 0 -7 -17 -11 -37z m11 -555
c-3 -7 -5 -2 -5 12 0 14 2 19 5 13 2 -7 2 -19 0 -25z"/>
<path d="M6752 5965 c0 -16 2 -22 5 -12 2 9 2 23 0 30 -3 6 -5 -1 -5 -18z"/>
<path d="M7142 5513 c-13 -36 -21 -67 -19 -70 3 -2 15 26 27 62 12 36 20 68
18 70 -2 2 -14 -26 -26 -62z"/>
<path d="M3200 5511 c0 -16 57 -161 76 -191 19 -31 16 -20 -31 100 -38 98 -45
112 -45 91z"/>
<path d="M4389 5243 c-58 -60 -122 -130 -144 -157 l-39 -48 29 -24 c17 -13 33
-24 36 -24 4 0 24 22 45 49 22 27 81 94 132 150 51 56 92 109 92 120 0 17 -26
41 -43 41 -2 0 -51 -48 -108 -107z"/>
<path d="M6068 5265 c6 -11 50 -58 98 -105 107 -103 91 -78 -25 40 -46 47 -78
76 -73 65z"/>
<path d="M3632 5258 c-19 -19 -15 -56 7 -63 10 -3 31 0 45 7 21 9 26 18 24 37
-2 21 -9 27 -33 29 -17 2 -36 -3 -43 -10z"/>
<path d="M5280 4964 l0 -305 28 3 27 3 0 293 c0 249 -2 294 -15 302 -39 25
-40 21 -40 -296z"/>
<path d="M6908 5256 c-26 -19 -22 -45 8 -56 47 -18 85 25 52 58 -16 16 -39 15
-60 -2z"/>
<path d="M4040 4883 c-47 -49 -109 -113 -138 -144 l-53 -56 36 -27 36 -28 21
29 c12 15 70 77 129 137 90 91 111 108 131 103 18 -5 12 3 -22 33 -25 22 -47
40 -50 40 -3 0 -44 -39 -90 -87z"/>
<path d="M6315 4939 c-67 -53 -216 -149 -295 -189 -192 -97 -512 -180 -692
-180 l-48 0 0 -210 0 -210 30 0 30 0 0 168 c0 117 4 172 12 180 7 7 32 12 58
12 122 0 380 61 558 131 114 45 187 88 418 244 12 8 20 4 36 -15 70 -87 184
-208 190 -204 19 12 0 37 -125 167 l-133 138 -39 -32z"/>
<path d="M4266 4849 c83 -66 306 -187 431 -235 107 -40 277 -82 385 -96 85
-10 101 -10 109 2 23 36 7 45 -96 52 -127 9 -265 39 -408 87 -148 51 -179 65
-326 150 -68 39 -126 71 -128 71 -3 0 12 -14 33 -31z"/>
<path d="M3733 4570 c-38 -45 -39 -51 -15 -73 24 -22 26 -22 67 14 27 24 42
30 63 26 25 -5 24 -2 -18 34 -25 21 -49 39 -55 39 -5 0 -25 -18 -42 -40z"/>
<path d="M4356 4538 c-20 -28 -20 -42 -1 -58 23 -19 47 6 43 43 -4 38 -21 45
-42 15z"/>
<path d="M6203 4541 c-10 -16 -9 -24 6 -42 22 -27 51 -20 51 14 0 44 -36 61
-57 28z"/>
<path d="M3880 4526 c0 -10 167 -135 245 -184 114 -70 274 -154 390 -203 165
-69 478 -139 627 -139 38 0 48 4 53 21 4 11 4 23 1 27 -4 3 -61 9 -127 13
-286 18 -556 97 -839 247 -111 58 -242 141 -322 202 -16 12 -28 19 -28 16z"/>
<path d="M3590 4056 c0 -5 106 -87 130 -101 24 -13 1 7 -67 59 -35 26 -63 45
-63 42z"/>
<path d="M5227 3698 c-19 -15 -37 -60 -37 -92 0 -25 48 -76 72 -76 9 0 30 16
46 35 27 30 30 38 22 67 -10 34 -51 78 -74 78 -7 0 -20 -6 -29 -12z"/>
<path d="M4940 3489 c25 -4 59 -7 75 -7 22 0 18 3 -15 9 -25 4 -58 7 -75 7
-22 0 -18 -3 15 -9z"/>
<path d="M5133 3473 c9 -2 23 -2 30 0 6 3 -1 5 -18 5 -16 0 -22 -2 -12 -5z"/>
<path d="M7180 8822 c0 -18 37 -41 120 -75 81 -33 226 -109 280 -147 71 -48
66 -36 -7 22 -66 51 -219 141 -309 181 -64 28 -84 33 -84 19z"/>
<path d="M5194 8769 c-24 -47 -4 -132 38 -158 17 -10 23 -9 40 6 76 69 58 183
-29 183 -26 0 -36 -6 -49 -31z"/>
<path d="M6550 8590 c0 -5 5 -10 11 -10 5 0 7 5 4 10 -3 6 -8 10 -11 10 -2 0
-4 -4 -4 -10z"/>
<path d="M4505 8480 c-19 -8 -19 -9 2 -9 12 -1 25 4 28 9 7 12 -2 12 -30 0z"/>
<path d="M8038 8355 c93 -143 191 -344 195 -400 l2 -40 -58 -11 c-32 -7 -60
-14 -62 -16 -3 -2 3 -15 12 -27 14 -21 22 -23 81 -19 73 5 91 19 84 67 -7 51
-127 285 -201 394 -103 151 -144 191 -53 52z"/>
<path d="M7413 8298 c-16 -18 -51 -55 -77 -82 -44 -47 -46 -50 -31 -72 21 -32
43 -30 87 6 48 40 99 180 65 180 -7 0 -27 -15 -44 -32z"/>
<path d="M7160 8076 c0 -5 47 -77 57 -86 3 -3 -4 14 -16 37 -18 37 -41 64 -41
49z"/>
<path d="M7310 7891 c0 -6 4 -13 10 -16 6 -3 7 1 4 9 -7 18 -14 21 -14 7z"/>
<path d="M7336 7847 c3 -10 9 -15 12 -12 3 3 0 11 -7 18 -10 9 -11 8 -5 -6z"/>
<path d="M7500 7625 c0 -15 18 -40 24 -34 3 3 -1 14 -9 25 -8 10 -14 15 -15 9z"/>
<path d="M7541 7555 c21 -47 91 -153 83 -125 -4 14 -15 37 -25 51 -10 14 -16
29 -12 33 3 3 1 6 -5 6 -7 0 -12 6 -12 13 0 8 -9 22 -21 33 l-21 19 13 -30z"/>
<path d="M7682 7301 c24 -41 40 -51 46 -29 3 9 1 10 -5 1 -5 -7 -14 2 -27 28
-11 21 -23 39 -28 39 -5 0 1 -17 14 -39z"/>
<path d="M7730 7197 c0 -4 9 -25 19 -45 11 -21 35 -84 55 -141 20 -56 41 -110
47 -119 12 -19 14 -26 -27 92 -13 38 -25 79 -27 92 -2 13 -6 26 -10 30 -4 4
-7 14 -7 23 0 16 -49 83 -50 68z"/>
<path d="M7781 7180 c0 -8 4 -24 9 -35 5 -13 9 -14 9 -5 0 8 -4 24 -9 35 -5
13 -9 14 -9 5z"/>
<path d="M7870 6911 c0 -6 5 -13 10 -16 6 -3 10 1 10 9 0 9 -4 16 -10 16 -5 0
-10 -4 -10 -9z"/>
<path d="M7753 6223 c-17 -6 -17 -85 -1 -101 18 -18 103 -15 123 5 19 19 15
81 -7 95 -14 8 -95 10 -115 1z"/>
<path d="M7645 6160 c3 -5 8 -10 11 -10 2 0 4 5 4 10 0 6 -5 10 -11 10 -5 0
-7 -4 -4 -10z"/>
<path d="M2036 6123 c-3 -4 -25 -9 -49 -12 -30 -4 -43 -11 -45 -25 -5 -25 14
-36 66 -36 53 0 82 14 82 40 0 11 -9 24 -19 30 -23 12 -26 12 -35 3z"/>
<path d="M8480 6110 c-8 -5 -25 -10 -37 -10 -27 0 -32 -34 -7 -44 31 -12 91
-6 105 10 26 31 -25 68 -61 44z"/>
<path d="M7275 4820 c-9 -16 -13 -30 -11 -30 3 0 12 14 21 30 9 17 13 30 11
30 -3 0 -12 -13 -21 -30z"/>
<path d="M7109 4603 c-13 -16 -12 -17 4 -4 9 7 17 15 17 17 0 8 -8 3 -21 -13z"/>
<path d="M8105 4072 c-11 -52 -141 -239 -231 -332 -148 -153 -254 -211 -653
-355 l-64 -23 26 -26 c14 -14 35 -26 45 -26 25 0 316 110 412 156 176 84 324
219 449 408 80 122 92 157 64 194 -27 36 -40 37 -48 4z"/>
<path d="M7400 3976 c0 -8 -12 -24 -26 -35 -22 -18 -25 -23 -14 -36 55 -66
121 -11 74 60 -18 28 -34 33 -34 11z"/>
<path d="M7532 3813 c-18 -7 -33 -39 -26 -57 7 -19 45 -21 62 -4 17 17 15 55
-4 62 -9 3 -16 6 -17 5 -1 0 -8 -3 -15 -6z"/>
<path d="M3015 3791 c-7 -23 2 -48 22 -55 33 -13 46 29 17 58 -20 21 -31 20
-39 -3z"/>
<path d="M2900 3625 c0 -2 10 -10 23 -16 20 -11 21 -11 8 4 -13 16 -31 23 -31
12z"/>
<path d="M3000 3550 c54 -43 296 -194 356 -222 35 -16 71 -27 81 -24 27 9 56
63 49 91 -6 25 -48 55 -53 39 -12 -37 -45 -74 -65 -74 -28 1 -149 65 -280 148
-95 61 -137 81 -88 42z"/>
<path d="M1932 2860 c-28 -23 -55 -54 -60 -68 -11 -42 -9 -1064 3 -1084 6 -9
36 -39 67 -66 46 -40 69 -53 115 -62 52 -11 67 -10 163 14 127 32 140 44 140
125 0 36 6 65 15 77 15 19 15 18 37 -8 13 -14 38 -48 57 -75 42 -60 117 -123
167 -141 156 -54 500 -22 687 66 65 31 94 51 139 102 l58 63 76 -73 c101 -96
177 -132 289 -138 72 -4 91 -1 171 28 49 18 98 32 109 33 11 0 56 -10 100 -22
109 -30 253 -30 382 -1 125 29 195 25 247 -15 l38 -29 226 2 c250 1 366 12
391 37 11 10 18 40 21 92 3 42 10 78 16 80 5 2 31 -27 57 -64 44 -66 106 -126
157 -153 25 -13 165 -10 420 11 63 5 196 13 295 18 99 5 190 13 202 16 12 4
55 0 95 -8 121 -26 215 -31 288 -14 82 19 386 25 450 9 52 -13 150 -14 230 -2
30 4 117 3 192 -2 206 -15 317 9 360 76 18 29 19 44 13 231 -6 163 -4 203 6
212 8 6 43 17 79 23 85 15 126 33 141 61 14 28 24 182 15 233 -5 26 -22 52
-57 86 -43 42 -57 50 -103 55 -29 4 -82 3 -117 -3 -35 -5 -118 -7 -185 -4
-107 4 -126 2 -168 -16 -25 -12 -54 -18 -64 -15 -15 6 -16 5 -2 -13 9 -11 1
-7 -18 8 -18 15 -52 33 -75 40 -65 19 -222 15 -290 -6 -31 -11 -60 -16 -63
-13 -3 3 -10 52 -15 109 -4 57 -8 104 -9 104 0 1 -22 25 -49 54 l-49 52 -99
-4 c-95 -3 -102 -5 -169 -45 -38 -23 -75 -51 -82 -63 -8 -13 -19 -54 -26 -93
l-11 -71 -70 -21 c-39 -12 -118 -46 -177 -75 l-107 -52 -61 45 c-81 61 -170
82 -314 74 -55 -3 -113 -9 -127 -12 -23 -6 -29 -1 -54 42 -37 62 -115 145
-174 182 -113 73 -218 93 -536 106 l-151 6 -56 -41 c-65 -46 -103 -112 -115
-199 l-8 -55 -75 -13 c-53 -10 -160 -14 -362 -13 l-288 1 -57 -37 c-49 -31
-61 -35 -83 -26 -14 6 -54 23 -90 38 -47 19 -88 28 -150 32 -110 6 -178 -17
-313 -104 -55 -35 -105 -64 -110 -64 -6 0 -31 20 -57 44 -123 115 -315 155
-477 101 -42 -14 -76 -24 -78 -23 -1 2 -13 28 -28 59 -30 63 -145 180 -217
222 -83 48 -193 68 -415 74 l-200 5 -53 -42z m531 -45 c81 -21 152 -59 202
-110 83 -83 110 -259 57 -377 -25 -57 -101 -141 -143 -158 -16 -7 -29 -19 -27
-26 3 -16 167 -218 277 -343 l74 -84 -121 7 c-67 4 -133 11 -147 14 -25 7
-125 129 -256 312 l-64 89 -47 1 -48 0 0 -190 0 -190 -54 0 c-29 0 -74 -3
-100 -6 l-47 -7 2 542 1 541 192 0 c138 0 208 -4 249 -15z m3202 0 c177 -45
264 -129 283 -274 23 -162 -38 -300 -159 -362 -22 -10 -39 -26 -39 -33 0 -17
114 -170 214 -286 40 -47 81 -98 92 -114 l18 -29 -49 6 c-28 3 -89 9 -137 13
l-87 7 -124 166 c-68 91 -132 181 -143 199 -16 28 -23 32 -62 32 l-44 0 3
-195 4 -195 -91 0 -91 0 -8 373 c-4 204 -8 447 -9 539 l-1 168 185 0 c134 0
203 -4 245 -15z m1670 -528 l0 -537 -84 0 -84 0 6 34 c3 19 3 36 1 39 -3 2
-44 -16 -92 -40 -80 -42 -91 -45 -144 -40 -74 7 -146 46 -211 117 -79 86 -101
144 -102 265 0 93 2 105 34 172 39 84 118 166 199 207 92 47 196 31 273 -40
14 -13 27 -24 30 -24 2 0 3 33 2 72 -2 40 -4 126 -5 190 l-3 117 80 4 c44 1
85 2 90 2 7 -1 10 -188 10 -538z m482 217 c76 -37 149 -120 162 -187 6 -28 12
-168 13 -310 l3 -257 -87 0 -88 0 0 45 c0 25 -3 45 -6 45 -3 0 -25 -16 -48
-35 -109 -89 -221 -88 -318 3 -59 55 -87 106 -95 171 -7 59 9 92 72 150 74 68
120 84 263 89 l122 4 0 37 c0 26 -7 44 -22 59 -62 57 -143 56 -331 -5 -16 -5
-18 1 -15 67 l3 73 67 34 c115 58 207 64 305 17z m-4561 -7 c74 -34 165 -122
194 -190 12 -26 24 -71 27 -100 l7 -52 8 44 c17 97 137 248 239 302 38 20 59
24 149 24 98 0 109 -2 171 -32 84 -41 140 -96 179 -173 61 -121 59 -222 -6
-353 -44 -86 -111 -154 -189 -193 -52 -25 -71 -29 -146 -29 -78 0 -91 3 -160
37 -41 20 -95 57 -120 83 -50 50 -119 172 -119 210 0 42 -17 36 -22 -8 -8 -68
-47 -137 -117 -208 -56 -56 -78 -70 -144 -94 -89 -32 -134 -31 -232 6 -81 30
-173 121 -218 216 -29 62 -32 77 -32 163 0 77 4 104 22 143 31 66 72 116 138
167 77 59 113 71 220 67 74 -2 101 -7 151 -30z m1483 -12 l34 -33 48 33 c112
77 250 46 334 -73 l30 -44 3 -309 3 -309 -95 0 c-52 0 -97 4 -100 9 -3 4 -6
109 -6 232 -1 123 -5 241 -11 262 -21 81 -86 102 -141 46 -29 -29 -30 -33 -24
-92 3 -34 9 -154 13 -266 l6 -204 -34 7 c-19 5 -61 11 -93 15 l-60 6 4 215 c7
352 8 333 -22 349 -21 12 -33 13 -67 3 -70 -22 -72 -28 -78 -321 l-6 -261 -91
0 -91 0 1 192 c1 106 5 280 9 386 l7 192 85 0 85 0 -4 -30 c-1 -16 -1 -31 2
-32 3 -2 22 10 42 25 75 58 160 58 217 2z m1664 29 c56 -19 131 -83 157 -135
30 -58 40 -153 40 -401 l0 -228 -86 0 -87 0 7 40 c8 51 0 51 -86 -1 -78 -47
-133 -58 -205 -40 -65 17 -119 56 -151 110 -23 38 -27 58 -27 116 1 83 19 120
82 165 68 49 144 71 272 77 l113 6 -5 39 c-7 53 -29 74 -89 88 -60 15 -132 8
-213 -20 -32 -11 -59 -20 -60 -20 -1 0 -5 27 -9 59 -5 44 -11 61 -23 63 -25 5
61 58 127 79 69 22 182 24 243 3z m1817 -34 l0 -39 61 36 c43 26 76 38 112 41
l52 4 0 -108 0 -109 -62 0 c-57 0 -65 -3 -99 -35 -57 -55 -61 -74 -69 -307
l-8 -213 -88 0 -89 0 0 123 c0 67 3 240 7 385 l6 262 89 0 88 0 0 -40z m-2250
-364 c-21 -29 -34 -61 -37 -90 -6 -49 -16 -56 -45 -29 -32 29 -22 55 44 115
35 31 65 55 67 53 2 -2 -11 -24 -29 -49z"/>
<path d="M2220 2465 l0 -168 106 7 c116 7 148 19 188 66 45 54 47 118 6 186
-31 50 -62 61 -188 69 l-112 8 0 -168z"/>
<path d="M5438 2585 c-3 -22 -2 -93 0 -159 l5 -119 92 5 c159 9 224 59 212
165 -5 45 -43 105 -79 124 -12 6 -67 14 -124 18 l-102 6 -4 -40z"/>
<path d="M6923 2321 c-53 -24 -103 -105 -103 -166 0 -95 56 -184 131 -206 79
-24 176 28 198 107 18 66 14 169 -10 215 -34 68 -128 89 -216 50z m145 -157
c16 -11 22 -25 22 -53 0 -46 -10 -56 -73 -73 -55 -14 -80 -5 -85 31 -11 76 77
137 136 95z"/>
<path d="M7703 2084 c-142 -24 -176 -49 -159 -119 18 -72 172 -69 247 6 23 23
28 130 7 128 -7 -1 -50 -7 -95 -15z"/>
<path d="M3065 2341 c-100 -25 -155 -94 -155 -194 0 -68 40 -135 107 -177 55
-35 99 -38 159 -11 53 24 90 65 109 120 20 61 19 99 -6 146 -50 95 -129 137
-214 116z"/>
<path d="M3836 2336 c-46 -17 -109 -76 -131 -122 -56 -119 53 -274 194 -274
95 0 180 98 181 209 0 65 -38 142 -85 171 -44 27 -111 34 -159 16z"/>
<path d="M6330 2083 c-114 -16 -127 -20 -150 -43 -29 -29 -27 -94 2 -114 23
-16 111 -20 156 -8 45 14 79 58 86 113 4 29 3 55 -1 58 -4 4 -46 1 -93 -6z"/>
</g>
</svg>
